<?xml version="1.0" encoding="UTF-8" standalone="no"?>
<!-- Created with Inkscape (http://www.inkscape.org/) -->

<svg
   xmlns:dc="http://purl.org/dc/elements/1.1/"
   xmlns:cc="http://creativecommons.org/ns#"
   xmlns:rdf="http://www.w3.org/1999/02/22-rdf-syntax-ns#"
   xmlns:svg="http://www.w3.org/2000/svg"
   xmlns="http://www.w3.org/2000/svg"
   xmlns:xlink="http://www.w3.org/1999/xlink"
   xmlns:sodipodi="http://sodipodi.sourceforge.net/DTD/sodipodi-0.dtd"
   xmlns:inkscape="http://www.inkscape.org/namespaces/inkscape"
   width="2048"
   height="2048"
   viewBox="0 0 2048 2048"
   id="svg2"
   version="1.1"
   inkscape:version="0.91 r13725"
   sodipodi:docname="icon.svg"
   inkscape:export-filename="/home/vanitas/Programmierung/androidstudio/EnigmAndroid/app/src/main/res/drawable-xxxhdpi/ic_launcher.png"
   inkscape:export-xdpi="8.4375"
   inkscape:export-ydpi="8.4375">
  <sodipodi:namedview
     id="base"
     pagecolor="#ffffff"
     bordercolor="#666666"
     borderopacity="1.0"
     inkscape:pageopacity="0.0"
     inkscape:pageshadow="2"
     inkscape:zoom="0.25292968"
     inkscape:cx="1069.1487"
     inkscape:cy="949.07708"
     inkscape:document-units="px"
     inkscape:current-layer="layer2"
     showgrid="false"
     inkscape:snap-others="true"
     inkscape:window-width="1535"
     inkscape:window-height="876"
     inkscape:window-x="65"
     inkscape:window-y="24"
     inkscape:window-maximized="1"
     units="px">
    <sodipodi:guide
       id="guide3397"
       orientation="0,744.09449"
       position="498.57143,244.28572" />
    <sodipodi:guide
       id="guide3399"
       orientation="-1052.3622,0"
       position="1035.861,2257.5444" />
    <sodipodi:guide
       id="guide3401"
       orientation="0,-744.09449"
       position="378.57143,808.57145" />
    <sodipodi:guide
       id="guide3403"
       orientation="1052.3622,0"
       position="0,1052.3622" />
  </sodipodi:namedview>
  <defs
     id="defs4">
    <linearGradient
       id="linearGradient4343"
       inkscape:collect="always">
      <stop
         id="stop4345"
         offset="0"
         style="stop-color:#808080;stop-opacity:1;" />
      <stop
         id="stop4347"
         offset="1"
         style="stop-color:#8e8e8e;stop-opacity:0" />
    </linearGradient>
    <linearGradient
       inkscape:collect="always"
       id="linearGradient9452">
      <stop
         style="stop-color:#ff3d00;stop-opacity:1"
         offset="0"
         id="stop9454" />
      <stop
         style="stop-color:#ff1700;stop-opacity:1"
         offset="1"
         id="stop9456" />
    </linearGradient>
    <linearGradient
       inkscape:collect="always"
       id="linearGradient8803">
      <stop
         style="stop-color:#000000;stop-opacity:1;"
         offset="0"
         id="stop8805" />
      <stop
         style="stop-color:#000000;stop-opacity:0;"
         offset="1"
         id="stop8807" />
    </linearGradient>
    <linearGradient
       inkscape:collect="always"
       id="linearGradient8733">
      <stop
         style="stop-color:#808080;stop-opacity:1;"
         offset="0"
         id="stop8735" />
      <stop
         style="stop-color:#808080;stop-opacity:0;"
         offset="1"
         id="stop8737" />
    </linearGradient>
    <filter
       style="color-interpolation-filters:sRGB"
       inkscape:label="Drop Shadow"
       id="filter8348">
      <feFlood
         flood-opacity="0.498039"
         flood-color="rgb(0,0,0)"
         result="flood"
         id="feFlood8350" />
      <feComposite
         in="flood"
         in2="SourceGraphic"
         operator="in"
         result="composite1"
         id="feComposite8352" />
      <feGaussianBlur
         in="composite1"
         stdDeviation="7"
         result="blur"
         id="feGaussianBlur8354" />
      <feOffset
         dx="3"
         dy="3"
         result="offset"
         id="feOffset8356" />
      <feComposite
         in="SourceGraphic"
         in2="offset"
         operator="over"
         result="composite2"
         id="feComposite8358" />
    </filter>
    <filter
       style="color-interpolation-filters:sRGB"
       inkscape:label="Drop Shadow"
       id="filter8456">
      <feFlood
         flood-opacity="0.498039"
         flood-color="rgb(0,0,0)"
         result="flood"
         id="feFlood8458" />
      <feComposite
         in="flood"
         in2="SourceGraphic"
         operator="in"
         result="composite1"
         id="feComposite8460" />
      <feGaussianBlur
         in="composite1"
         stdDeviation="4.4"
         result="blur"
         id="feGaussianBlur8462" />
      <feOffset
         dx="3.1"
         dy="3"
         result="offset"
         id="feOffset8464" />
      <feComposite
         in="SourceGraphic"
         in2="offset"
         operator="over"
         result="fbSourceGraphic"
         id="feComposite8466" />
      <feColorMatrix
         result="fbSourceGraphicAlpha"
         in="fbSourceGraphic"
         values="0 0 0 -1 0 0 0 0 -1 0 0 0 0 -1 0 0 0 0 1 0"
         id="feColorMatrix8468" />
      <feFlood
         id="feFlood8470"
         flood-opacity="0.498039"
         flood-color="rgb(0,0,0)"
         result="flood"
         in="fbSourceGraphic" />
      <feComposite
         id="feComposite8472"
         in2="fbSourceGraphic"
         in="flood"
         operator="in"
         result="composite1" />
      <feGaussianBlur
         id="feGaussianBlur8474"
         in="composite1"
         stdDeviation="4.4"
         result="blur" />
      <feOffset
         id="feOffset8476"
         dx="3.1"
         dy="3"
         result="offset" />
      <feComposite
         id="feComposite8478"
         in2="offset"
         in="fbSourceGraphic"
         operator="over"
         result="composite2" />
    </filter>
    <filter
       style="color-interpolation-filters:sRGB"
       inkscape:label="Drop Shadow"
       id="filter8504">
      <feFlood
         flood-opacity="0.498039"
         flood-color="rgb(0,0,0)"
         result="flood"
         id="feFlood8506" />
      <feComposite
         in="flood"
         in2="SourceGraphic"
         operator="in"
         result="composite1"
         id="feComposite8508" />
      <feGaussianBlur
         in="composite1"
         stdDeviation="5.5"
         result="blur"
         id="feGaussianBlur8510" />
      <feOffset
         dx="3.1"
         dy="3"
         result="offset"
         id="feOffset8512" />
      <feComposite
         in="SourceGraphic"
         in2="offset"
         operator="over"
         result="composite2"
         id="feComposite8514" />
    </filter>
    <filter
       style="color-interpolation-filters:sRGB"
       inkscape:label="Drop Shadow"
       id="filter8516">
      <feFlood
         flood-opacity="0.498039"
         flood-color="rgb(0,0,0)"
         result="flood"
         id="feFlood8518" />
      <feComposite
         in="flood"
         in2="SourceGraphic"
         operator="in"
         result="composite1"
         id="feComposite8520" />
      <feGaussianBlur
         in="composite1"
         stdDeviation="5.5"
         result="blur"
         id="feGaussianBlur8522" />
      <feOffset
         dx="3.1"
         dy="3"
         result="offset"
         id="feOffset8524" />
      <feComposite
         in="SourceGraphic"
         in2="offset"
         operator="over"
         result="fbSourceGraphic"
         id="feComposite8526" />
      <feColorMatrix
         result="fbSourceGraphicAlpha"
         in="fbSourceGraphic"
         values="0 0 0 -1 0 0 0 0 -1 0 0 0 0 -1 0 0 0 0 1 0"
         id="feColorMatrix9476" />
      <feFlood
         id="feFlood9478"
         flood-opacity="0.498039"
         flood-color="rgb(0,0,0)"
         result="flood"
         in="fbSourceGraphic" />
      <feComposite
         id="feComposite9480"
         in2="fbSourceGraphic"
         in="flood"
         operator="in"
         result="composite1" />
      <feGaussianBlur
         id="feGaussianBlur9482"
         in="composite1"
         stdDeviation="2.3"
         result="blur" />
      <feOffset
         id="feOffset9484"
         dx="3.1"
         dy="3"
         result="offset" />
      <feComposite
         id="feComposite9486"
         in2="offset"
         in="fbSourceGraphic"
         operator="over"
         result="composite2" />
    </filter>
    <linearGradient
       inkscape:collect="always"
       xlink:href="#linearGradient8733"
       id="linearGradient8739"
       x1="362.02399"
       y1="378.64389"
       x2="389.76559"
       y2="378.64389"
       gradientUnits="userSpaceOnUse"
       gradientTransform="matrix(2.9066437,2.4389636,-2.4389636,2.9066436,877.88469,-2551.9233)" />
    <linearGradient
       gradientTransform="matrix(1.7226008,3.3807941,-3.3807941,1.7226008,1670.22,-1344.3665)"
       inkscape:collect="always"
       xlink:href="#linearGradient8733"
       id="linearGradient8739-0"
       x1="362.02399"
       y1="378.64389"
       x2="389.76559"
       y2="378.64389"
       gradientUnits="userSpaceOnUse" />
    <linearGradient
       gradientTransform="matrix(3.7476391,-0.59356773,0.59356773,3.7476391,-1138.3451,-1195.958)"
       inkscape:collect="always"
       xlink:href="#linearGradient8733"
       id="linearGradient8739-03"
       x1="362.02399"
       y1="378.64389"
       x2="389.76559"
       y2="378.64389"
       gradientUnits="userSpaceOnUse" />
    <linearGradient
       gradientTransform="matrix(3.2523959,-1.9542366,1.9542366,3.2523959,-347.56113,-503.04332)"
       inkscape:collect="always"
       xlink:href="#linearGradient8733"
       id="linearGradient8739-03-8"
       x1="362.02399"
       y1="378.64389"
       x2="389.76559"
       y2="378.64389"
       gradientUnits="userSpaceOnUse" />
    <radialGradient
       inkscape:collect="always"
       xlink:href="#linearGradient8803"
       id="radialGradient8823"
       cx="372.04724"
       cy="526.18109"
       fx="372.04724"
       fy="526.18109"
       r="141.62793"
       gradientTransform="matrix(1,0,0,1.0005086,0,-0.26763346)"
       gradientUnits="userSpaceOnUse" />
    <filter
       style="color-interpolation-filters:sRGB"
       inkscape:label="Drop Shadow"
       id="filter8945">
      <feFlood
         flood-opacity="0.498039"
         flood-color="rgb(0,0,0)"
         result="flood"
         id="feFlood8947" />
      <feComposite
         in="flood"
         in2="SourceGraphic"
         operator="in"
         result="composite1"
         id="feComposite8949" />
      <feGaussianBlur
         in="composite1"
         stdDeviation="5.5"
         result="blur"
         id="feGaussianBlur8951" />
      <feOffset
         dx="3.1"
         dy="3"
         result="offset"
         id="feOffset8953" />
      <feComposite
         in="SourceGraphic"
         in2="offset"
         operator="over"
         result="composite2"
         id="feComposite8955" />
    </filter>
    <filter
       style="color-interpolation-filters:sRGB"
       inkscape:label="Drop Shadow"
       id="filter8957">
      <feFlood
         flood-opacity="0.498039"
         flood-color="rgb(0,0,0)"
         result="flood"
         id="feFlood8959" />
      <feComposite
         in="flood"
         in2="SourceGraphic"
         operator="in"
         result="composite1"
         id="feComposite8961" />
      <feGaussianBlur
         in="composite1"
         stdDeviation="5.5"
         result="blur"
         id="feGaussianBlur8963" />
      <feOffset
         dx="3.1"
         dy="3"
         result="offset"
         id="feOffset8965" />
      <feComposite
         in="SourceGraphic"
         in2="offset"
         operator="over"
         result="composite2"
         id="feComposite8967" />
    </filter>
    <filter
       style="color-interpolation-filters:sRGB"
       inkscape:label="Drop Shadow"
       id="filter9357">
      <feFlood
         flood-opacity="0.498039"
         flood-color="rgb(0,0,0)"
         result="flood"
         id="feFlood9359" />
      <feComposite
         in="flood"
         in2="SourceGraphic"
         operator="out"
         result="composite1"
         id="feComposite9361" />
      <feGaussianBlur
         in="composite1"
         stdDeviation="2.3"
         result="blur"
         id="feGaussianBlur9363" />
      <feOffset
         dx="3.1"
         dy="3"
         result="offset"
         id="feOffset9365" />
      <feComposite
         in="offset"
         in2="SourceGraphic"
         operator="in"
         result="composite2"
         id="feComposite9367" />
    </filter>
    <filter
       style="color-interpolation-filters:sRGB"
       inkscape:label="Drop Shadow"
       id="filter9419">
      <feFlood
         flood-opacity="0.498039"
         flood-color="rgb(0,0,0)"
         result="flood"
         id="feFlood9421" />
      <feComposite
         in="flood"
         in2="SourceGraphic"
         operator="out"
         result="composite1"
         id="feComposite9423" />
      <feGaussianBlur
         in="composite1"
         stdDeviation="2.3"
         result="blur"
         id="feGaussianBlur9425" />
      <feOffset
         dx="3.1"
         dy="3"
         result="offset"
         id="feOffset9427" />
      <feComposite
         in="offset"
         in2="SourceGraphic"
         operator="atop"
         result="composite2"
         id="feComposite9429" />
    </filter>
    <linearGradient
       inkscape:collect="always"
       xlink:href="#linearGradient9452"
       id="linearGradient9458"
       x1="155.59888"
       y1="427.1698"
       x2="625.18481"
       y2="626.15796"
       gradientUnits="userSpaceOnUse"
       spreadMethod="pad" />
    <filter
       style="color-interpolation-filters:sRGB"
       inkscape:label="Drop Shadow"
       id="filter9419-4">
      <feFlood
         flood-opacity="0.498039"
         flood-color="rgb(0,0,0)"
         result="flood"
         id="feFlood9421-5" />
      <feComposite
         in="flood"
         in2="SourceGraphic"
         operator="out"
         result="composite1"
         id="feComposite9423-5" />
      <feGaussianBlur
         in="composite1"
         stdDeviation="2.3"
         result="blur"
         id="feGaussianBlur9425-8" />
      <feOffset
         dx="3.1"
         dy="3"
         result="offset"
         id="feOffset9427-9" />
      <feComposite
         in="offset"
         in2="SourceGraphic"
         operator="atop"
         result="composite2"
         id="feComposite9429-3" />
    </filter>
    <linearGradient
       inkscape:collect="always"
       xlink:href="#linearGradient4343"
       id="linearGradient8739-7"
       x1="366.18808"
       y1="383.27466"
       x2="387.85715"
       y2="366.63156"
       gradientUnits="userSpaceOnUse"
       gradientTransform="matrix(4.6912384,1.5242758,-1.5242758,4.6912384,-124.90485,-2611.0402)" />
    <linearGradient
       inkscape:collect="always"
       xlink:href="#linearGradient4343"
       id="linearGradient8739-7-6"
       x1="366.18808"
       y1="383.27466"
       x2="387.85715"
       y2="366.63156"
       gradientUnits="userSpaceOnUse"
       gradientTransform="matrix(-1.3596253,-4.7415771,4.7415771,-1.3596253,-424.61711,2503.3397)" />
    <linearGradient
       inkscape:collect="always"
       xlink:href="#linearGradient4343"
       id="linearGradient8739-7-9"
       x1="366.18808"
       y1="383.27466"
       x2="387.85715"
       y2="366.63156"
       gradientUnits="userSpaceOnUse"
       gradientTransform="matrix(-4.5734828,1.8478069,-1.8478069,-4.5734828,3597.2273,1272.9061)" />
  </defs>
  <metadata
     id="metadata7">
    <rdf:RDF>
      <cc:Work
         rdf:about="">
        <dc:format>image/svg+xml</dc:format>
        <dc:type
           rdf:resource="http://purl.org/dc/dcmitype/StillImage" />
        <dc:title />
      </cc:Work>
    </rdf:RDF>
  </metadata>
  <g
     id="layer1"
     inkscape:groupmode="layer"
     inkscape:label="Ebene 1"
     transform="translate(0,995.63784)"
     style="display:inline">
    <path
       style="opacity:1;fill:#696969;fill-opacity:1;fill-rule:evenodd;stroke:#000000;stroke-width:3.06087232;stroke-linecap:butt;stroke-linejoin:miter;stroke-miterlimit:4;stroke-dasharray:none;stroke-opacity:0.30314965;filter:url(#filter8516)"
       d="m 1091.1537,-846.07143 c -48.5875,0.0912 -39.8544,39.45494 -94.45109,42.09961 -57.28191,2.77473 -49.0855,-41.41884 -105.61527,-31.75977 -56.5297,9.65905 -34.12291,48.62286 -89.07617,65.02539 -54.95333,16.40256 -57.57094,-28.46935 -110.14649,-5.5625 -52.57548,22.90682 -21.49474,55.378 -70.92578,84.45508 -49.4311,29.07712 -62.71151,-13.86439 -108.27734,20.95898 -45.56578,34.82333 -7.61824,58.91283 -48.6543,98.97461 -41.03611,40.06183 -64.20724,1.54564 -100.11523,46.26172 -35.90795,44.71603 6.70348,59.02396 -23.55274,107.74219 -30.25625,48.71829 -61.97145,16.86689 -86.13476,68.87695 -24.16329,52.01 20.63205,55.7047 2.91406,110.24805 -17.71801,54.54342 -56.13214,31.20688 -67.14649,87.48828 -11.01433,56.28133 33.36295,49.14904 29.21289,106.34766 -4.15006,57.19864 -47.03449,43.73375 -44.25976,101.01564 2.77472,57.2818 44.15735,39.7359 53.8164,96.2656 9.65907,56.5298 -35.20137,53.7186 -18.79882,108.6719 16.40253,54.9532 52.38223,28.0143 75.28906,80.5898 22.90685,52.5756 -21.32126,60.5826 7.75586,110.0137 29.07708,49.431 57.56534,14.6627 92.38867,60.2285 34.82337,45.5658 -6.2044,63.9248 33.85742,104.961 40.06178,41.036 59.40116,0.4611 104.11719,36.3691 44.71609,35.908 9.2739,63.5523 57.99219,93.8086 48.71822,30.2562 57.78492,-13.7668 109.79492,10.3965 52.01006,24.1633 24.2144,59.4851 78.75781,77.2031 54.54335,17.718 52.81046,-27.196 109.0918,-16.1816 56.2814,11.0143 37.74663,51.9612 94.94531,56.1113 57.19856,4.15 44.76896,-39.0436 102.05076,-41.8184 57.2819,-2.7747 49.0835,41.4189 105.6133,31.7598 56.5297,-9.6591 34.1229,-48.6248 89.0762,-65.0274 54.9533,-16.4025 57.5709,28.4694 110.1465,5.5625 52.5754,-22.9068 21.4947,-55.376 70.9257,-84.4531 49.4311,-29.0771 62.7115,13.8644 108.2774,-20.959 45.5658,-34.8233 7.6182,-58.9128 48.6543,-98.9746 41.0361,-40.0618 64.2072,-1.5476 100.1152,-46.2636 35.908,-44.7161 -6.7035,-59.0221 23.5527,-107.7403 30.2563,-48.7183 61.9715,-16.8669 86.1348,-68.8769 24.1633,-52.01 -20.632,-55.7047 -2.9141,-110.2481 17.7181,-54.5434 56.1322,-31.2088 67.1465,-87.4902 11.0144,-56.2814 -33.3629,-49.1471 -29.2129,-106.3457 4.1501,-57.1987 47.0345,-43.7338 44.2598,-101.01564 -2.7747,-57.28181 -44.1573,-39.73593 -53.8164,-96.26563 -9.6591,-56.52977 35.2014,-53.7205 18.7988,-108.67383 -16.4025,-54.95326 -52.3822,-28.0124 -75.289,-80.58789 -22.9069,-52.57555 21.3212,-60.58257 -7.7559,-110.01367 -29.0771,-49.43104 -57.5653,-14.66469 -92.3887,-60.23047 -34.8233,-45.56583 6.2044,-63.92482 -33.8574,-104.96094 -40.0618,-41.03606 -59.4011,-0.46119 -104.1172,-36.36914 -44.7161,-35.90799 -9.2739,-63.55038 -57.9922,-93.80664 -48.7182,-30.25622 -57.7849,13.7668 -109.7949,-10.39648 -52.0101,-24.16331 -24.2144,-59.48511 -78.7578,-77.20313 -54.5433,-17.71799 -52.8105,27.19598 -109.0918,16.18164 -56.2814,-11.01434 -37.7466,-51.96321 -94.9453,-56.11328 -2.6812,-0.19453 -5.2081,-0.28378 -7.5977,-0.27929 z m -55.3593,756.41601 A 102.02908,102.02908 0 0 1 1137.8237,12.37386 102.02908,102.02908 0 0 1 1035.7944,114.40316 102.02908,102.02908 0 0 1 933.76507,12.37386 102.02908,102.02908 0 0 1 1035.7944,-89.65542 Z"
       id="path3405"
       inkscape:connector-curvature="0" />
    <path
       style="fill:#2d2d2d;stroke-width:2.0999999;stroke-miterlimit:4;stroke-dasharray:none;filter:url(#filter8348);fill-opacity:1"
       d="m 1013.7983,-601.57143 c -0.1331,-0.011 -0.2714,-0.008 -0.4141,0.0137 -20.81909,3.13175 -103.07772,81.95887 -123.86913,85.26953 -9.12033,1.45225 -14.32688,-65.39635 -22.86523,-61.87695 -19.46467,8.02308 -80.47028,104.24537 -99.86524,112.43554 -8.50776,3.59269 -29.55982,-60.06791 -37.00781,-54.60742 -16.97901,12.44815 -53.18335,120.47271 -70.05469,133.06641 -7.40076,5.52433 -43.07716,-51.24635 -49.00195,-44.16211 -13.5066,16.14977 -22.80661,129.69952 -36.17383,145.96484 -5.86364,7.13493 -54.08923,-39.44862 -58.14648,-31.15234 -9.24923,18.91283 8.89484,131.38919 -0.19141,150.38086 -3.98576,8.33086 -61.95818,-25.3582 -63.91211,-16.33203 -4.45432,20.57674 40.07995,125.44235 35.80274,146.05664 -1.87624,9.04263 -66.22585,-9.79399 -65.96289,-0.5625 0.59944,21.0448 68.93444,112.20525 69.71484,133.24415 0.34233,9.2289 -66.64619,6.3399 -64.18164,15.2402 5.61838,20.2898 93.78547,92.4468 99.57812,112.6875 2.541,8.8788 -63.19284,22.1044 -58.66992,30.1563 10.3108,18.3556 113.18409,67.3176 123.65235,85.584 4.59199,8.0126 -56.06453,36.5848 -49.7461,43.3203 14.40398,15.3547 126.00553,38.2755 140.54102,53.5058 6.37612,6.6809 -45.68229,48.9391 -37.93555,53.9668 17.66006,11.4615 131.50375,7.0072 149.26172,18.3164 7.78969,4.9609 -32.6428,58.4509 -23.91797,61.4785 19.8898,6.9021 129.36017,-24.6683 149.30859,-17.9375 8.75055,2.9526 -17.70564,64.5644 -8.50976,65.4161 20.96362,1.9416 119.69623,-54.9097 140.67573,-53.1485 9.2029,0.7726 -1.7399,66.9246 7.3926,65.5508 20.8191,-3.1317 103.0777,-81.9569 123.8692,-85.2676 9.1203,-1.4522 14.3268,65.3944 22.8652,61.875 19.4647,-8.0231 80.4703,-104.2434 99.8652,-112.4336 8.5078,-3.5927 29.5598,60.066 37.0078,54.6055 16.9791,-12.4481 53.1834,-120.4727 70.0547,-133.0664 7.4008,-5.5243 43.0772,51.2483 49.002,44.1641 13.5066,-16.1498 22.8066,-129.7015 36.1738,-145.9668 5.8637,-7.135 54.0892,39.4505 58.1465,31.1543 9.2492,-18.9129 -8.8948,-131.3892 0.1914,-150.3809 3.9858,-8.3309 61.9582,25.3582 63.9121,16.332 4.4543,-20.5767 -40.0799,-125.4423 -35.8027,-146.0566 1.8762,-9.0426 66.2258,9.794 65.9629,0.5625 -0.5995,-21.0448 -68.9345,-112.20528 -69.7149,-133.24415 -0.3423,-9.22889 66.6462,-6.33992 64.1817,-15.24023 -5.6184,-20.28983 -93.7855,-92.4487 -99.5782,-112.68946 -2.541,-8.87878 63.1929,-22.10437 58.67,-30.15625 -10.3108,-18.35567 -113.1841,-67.31765 -123.6524,-85.58398 -4.592,-8.01269 56.0645,-36.58482 49.7461,-43.32031 -14.404,-15.35476 -126.0036,-38.27359 -140.5391,-53.50391 -6.3761,-6.68092 45.6804,-48.94107 37.9336,-53.96875 -17.66,-11.46148 -131.5037,-7.00722 -149.2617,-18.31641 -7.7897,-4.96087 32.6428,-58.44889 23.918,-61.47656 -19.8898,-6.9021 -129.3602,24.66635 -149.3086,17.93555 -8.7506,-2.95253 17.7056,-64.56237 8.5098,-65.41406 -20.9637,-1.9416 -119.6963,54.90773 -140.6758,53.14648 -9.0591,-0.76052 1.4034,-64.8715 -6.9785,-65.56445 z m 22.5449,513.91601 A 102.02908,102.02908 0 0 1 1138.3705,14.37386 102.02908,102.02908 0 0 1 1036.3432,116.40316 102.02908,102.02908 0 0 1 934.3139,14.37386 102.02908,102.02908 0 0 1 1036.3432,-87.65542 Z"
       id="path4215"
       inkscape:connector-curvature="0"
       transform="matrix(1.1156684,0,0,1.1156684,-119.872,-1.6625622)" />
    <path
       id="path4219"
       d="M 372.04688,397.38672 A 128.79446,128.79446 0 0 0 243.25195,526.18164 128.79446,128.79446 0 0 0 372.04688,654.97461 128.79446,128.79446 0 0 0 500.8418,526.18164 128.79446,128.79446 0 0 0 372.04688,397.38672 Z m -0.31055,31.71094 a 95.964493,95.964493 0 0 1 95.96484,95.96484 95.964493,95.964493 0 0 1 -95.96484,95.96484 95.964493,95.964493 0 0 1 -95.96485,-95.96484 95.964493,95.964493 0 0 1 95.96485,-95.96484 z"
       style="fill:#1a1a1a;stroke-width:2.0999999;stroke-miterlimit:4;stroke-dasharray:none;filter:url(#filter8504)"
       inkscape:connector-curvature="0"
       transform="matrix(3.7943538,0,0,3.7943538,-375.33649,-1982.1439)" />
    <path
       id="path4476"
       d="m 479.31575,531.53855 c 0.0883,-1.42493 0.66237,-2.48785 1.68433,-3.48476 1.02195,-0.99692 2.39807,-1.54703 3.82562,-1.52932 1.42755,0.0177 2.78961,0.60177 3.78652,1.62373 0.99691,1.02195 1.53727,2.63171 1.44892,4.05664 -0.0884,1.42493 -0.74751,2.85825 -1.84058,3.77663 -1.09307,0.91839 -2.50619,1.36494 -3.9285,1.24142 -1.42231,-0.12352 -2.7373,-0.80699 -3.65569,-1.90006 -0.91838,-1.09307 -1.40898,-2.35935 -1.32062,-3.78428 0,0 0,0 0,0 m -4.47891,25.83489 c 0.39854,-1.37091 1.28407,-2.39949 2.51808,-3.11742 1.23402,-0.71793 2.6892,-0.86654 4.07794,-0.53547 1.38875,0.33106 2.56397,1.24735 3.2819,2.48137 0.71793,1.23402 0.85866,2.80601 0.46012,4.17692 -0.39855,1.37091 -1.44283,2.70283 -2.72609,3.32852 -1.28325,0.6257 -2.7625,0.71599 -4.11232,0.25103 -1.34983,-0.46496 -2.45967,-1.4471 -3.08536,-2.73035 -0.62569,-1.28326 -0.81281,-2.48369 -0.41427,-3.8546 0,0 0,0 0,0 m -10.52889,23.86187 c 0.71793,-1.23402 1.82395,-2.0192 3.19486,-2.41774 1.37091,-0.39854 2.81709,-0.19225 4.0847,0.46457 1.2676,0.65682 2.18848,1.83084 2.58702,3.20174 0.39854,1.37091 0.15709,2.93134 -0.56084,4.16536 -0.71793,1.23401 -2.04975,2.27683 -3.44619,2.5738 -1.39644,0.29697 -2.85365,0.027 -4.05107,-0.7504 -1.19742,-0.77744 -2.03695,-1.99872 -2.33392,-3.39515 -0.29697,-1.39644 -0.19249,-2.60817 0.52544,-3.84218 0,0 0,0 0,0 m -15.9597,20.61199 c 0.99691,-1.02195 2.25436,-1.5176 3.68104,-1.57068 1.42667,-0.0531 2.77422,0.49522 3.84427,1.44032 1.07005,0.9451 1.68207,2.31217 1.73515,3.73885 0.0531,1.42667 -0.557,2.8873 -1.55391,3.90925 -0.99691,1.02195 -2.533,1.72266 -3.95968,1.66958 -1.42667,-0.0531 -2.77383,-0.67072 -3.74511,-1.71707 -0.97129,-1.04634 -1.48713,-2.43567 -1.43405,-3.86235 0.0531,-1.42667 0.43538,-2.58595 1.43229,-3.6079 0,0 0,0 0,0 m -20.44961,16.16295 c 1.21609,-0.74789 2.55308,-0.93029 3.94952,-0.63332 1.39643,0.29697 2.5642,1.14932 3.37076,2.32732 0.80655,1.178 1.07175,2.66124 0.77479,4.05768 -0.29697,1.39643 -1.2391,2.67099 -2.45519,3.41888 -1.21609,0.7479 -2.86631,1.06482 -4.23722,0.66628 -1.37091,-0.39854 -2.52735,-1.32535 -3.21492,-2.57654 -0.68757,-1.25119 -0.84994,-2.72427 -0.4514,-4.09518 0.39854,-1.37091 1.04757,-2.41722 2.26366,-3.16512 0,0 0,0 0,0 m -23.75266,10.76924 c 1.36077,-0.43189 2.70197,-0.28801 3.98522,0.33769 1.28325,0.62569 2.20982,1.7327 2.70756,3.07079 0.49775,1.33809 0.39746,2.84364 -0.22823,4.12689 -0.6257,1.28325 -1.84688,2.29432 -3.20765,2.72621 -1.36077,0.4319 -2.94654,0.29378 -4.19773,-0.39378 -1.25119,-0.68757 -2.20593,-1.87617 -2.57085,-3.25641 -0.36493,-1.38023 -0.24186,-2.8025 0.44571,-4.05369 0.68757,-1.25119 1.7052,-2.12581 3.06597,-2.5577 0,0 0,0 0,0 m -25.63898,4.72972 c 1.42492,-0.0884 2.68894,0.37167 3.782,1.29006 1.09307,0.91838 1.72229,2.21254 1.88084,3.63137 0.15855,1.41883 -0.30381,2.85974 -1.22219,3.95281 -0.91839,1.09307 -2.34943,1.78279 -3.77436,1.87115 -1.42493,0.0884 -2.93069,-0.4253 -3.97704,-1.39658 -1.04634,-0.97128 -1.68335,-2.34989 -1.70105,-3.77744 -0.0177,-1.42755 0.44675,-2.78369 1.41803,-3.83003 0.97128,-1.04635 2.16884,-1.65298 3.59377,-1.74134 0,0 0,0 0,0 m -26.01432,-1.58049 c 1.4033,0.26265 2.51911,1.0077 3.35434,2.16555 0.83522,1.15785 1.13053,2.55597 0.93711,3.97047 -0.19343,1.4145 -0.99573,2.70922 -2.15358,3.54444 -1.15786,0.83523 -2.71524,1.16446 -4.11853,0.9018 -1.4033,-0.26265 -2.73891,-1.11854 -3.51635,-2.31596 -0.77744,-1.19742 -1.06034,-2.68053 -0.72927,-4.06928 0.33106,-1.38874 1.11538,-2.5995 2.3128,-3.37694 1.19742,-0.77744 2.51019,-1.08274 3.91348,-0.82008 0,0 0,0 0,0 m -24.88368,-7.8039 c 1.29813,0.59421 2.06984,1.55524 2.63222,2.86747 0.56239,1.31223 0.58045,2.79412 0.0502,4.11967 -0.53022,1.32556 -1.56531,2.38619 -2.87754,2.94857 -1.31223,0.56238 -2.98772,0.44771 -4.28585,-0.1465 -1.29813,-0.59421 -2.38778,-1.74512 -2.85274,-3.09495 -0.46497,-1.34983 -0.38197,-2.85526 0.27484,-4.12287 0.65682,-1.2676 1.71171,-2.25485 3.06154,-2.71981 1.34983,-0.46497 2.69917,-0.44579 3.9973,0.14842 0,0 0,0 0,0 m -22.26902,-13.56495 c 1.11538,0.89115 1.63363,2.00339 1.86176,3.41271 0.22814,1.40932 -0.11292,2.85154 -0.94815,4.00939 -0.83522,1.15786 -2.0962,1.93649 -3.50552,2.16463 -1.40931,0.22813 -3.01292,-0.2845 -4.1283,-1.17566 -1.11537,-0.89115 -1.89704,-2.26933 -2.02056,-3.69164 -0.12352,-1.42231 0.31888,-2.85898 1.26398,-3.92904 0.9451,-1.07005 2.21081,-1.776 3.63312,-1.89952 1.42231,-0.12352 2.7283,0.21797 3.84367,1.10913 0,0 0,0 0,0 m -18.3398,-18.51648 c 0.86343,1.13697 1.11055,2.32826 0.98703,3.75057 -0.12352,1.42231 -0.80699,2.7373 -1.90005,3.65569 -1.09307,0.91838 -2.5062,1.36493 -3.92851,1.24141 -1.42231,-0.12352 -2.86899,-0.99957 -3.73242,-2.13654 -0.86343,-1.13698 -1.29272,-2.65777 -1.06459,-4.06709 0.22814,-1.40932 0.99991,-2.68795 2.17791,-3.4945 1.178,-0.80656 2.5868,-1.1873 3.99611,-0.95917 1.40932,0.22814 2.60109,0.87265 3.46452,2.00963 0,0 0,0 0,0 m -13.34814,-22.40256 c 0.56238,1.31224 0.52188,2.52716 0.0569,3.87698 -0.46496,1.34983 -1.4471,2.45967 -2.73035,3.08536 -1.28325,0.62569 -2.7625,0.71599 -4.11233,0.25103 -1.34983,-0.46497 -2.5474,-1.6602 -3.10978,-2.97243 -0.56239,-1.31223 -0.61336,-2.88969 -0.051,-4.20192 0.56239,-1.31224 1.61803,-2.36498 2.95612,-2.86273 1.33808,-0.49774 2.7999,-0.52697 4.11213,0.0354 1.31223,0.56238 2.3159,1.47606 2.87828,2.78829 0,0 0,0 0,0 m -7.5603,-24.95938 c 0.22814,1.40932 -0.0999,2.57578 -0.87733,3.7732 -0.77745,1.19741 -1.99872,2.03695 -3.39516,2.33392 -1.39643,0.29697 -2.85365,0.027 -4.05106,-0.7504 -1.19742,-0.77744 -2.076,-2.22705 -2.30414,-3.63637 -0.22813,-1.40931 0.10084,-2.95256 0.96427,-4.08954 0.86343,-1.13697 2.14316,-1.88439 3.55766,-2.07781 1.4145,-0.19343 2.84791,0.18298 3.98488,1.04641 1.13698,0.86343 1.89275,1.99127 2.12088,3.40059 0,0 0,0 0,0 m -1.31205,-26.17869 c -0.0883,1.42493 -0.72481,2.62101 -1.77116,3.59229 -1.04634,0.97129 -2.43237,1.435 -3.85993,1.4173 -1.42755,-0.0177 -2.77625,-0.65398 -3.74753,-1.70032 -0.97128,-1.04635 -1.45512,-2.55063 -1.36677,-3.97556 0.0884,-1.42493 0.81,-2.95606 1.92538,-3.84722 1.11538,-0.89115 2.53908,-1.30273 3.95792,-1.14418 1.41883,0.15855 2.71657,0.87424 3.60772,1.98961 0.89116,1.11538 1.34273,2.24316 1.25437,3.66808 0,0 0,0 0,0 m 5.0201,-25.58475 c -0.43189,1.36077 -1.3347,2.36983 -2.58589,3.0574 -1.25119,0.68757 -2.70187,0.80276 -4.08211,0.43783 -1.38023,-0.36493 -2.54042,-1.31178 -3.22799,-2.56297 -0.68757,-1.25119 -0.79749,-2.82839 -0.3656,-4.18916 0.4319,-1.36077 1.49341,-2.67184 2.79154,-3.26605 1.29813,-0.59421 2.77914,-0.64841 4.11723,-0.15066 1.33809,0.49775 2.42364,1.50666 3.01785,2.80479 0.59421,1.29813 0.76686,2.50805 0.33497,3.86882 0,0 0,0 0,0 m 11.03634,-23.63037 c -0.7479,1.21609 -1.86585,1.97799 -3.24609,2.34292 -1.38024,0.36493 -2.81401,0.12724 -4.0652,-0.56033 -1.25119,-0.68757 -2.15002,-1.88766 -2.51495,-3.2679 -0.36493,-1.38023 -0.0922,-2.93848 0.65568,-4.15457 0.74789,-1.21609 2.09139,-2.23502 3.49469,-2.49767 1.40329,-0.26265 2.85345,0.0429 4.03146,0.84947 1.178,0.80655 1.98735,2.04804 2.25001,3.45133 0.26265,1.4033 0.14229,2.62066 -0.6056,3.83675 0,0 0,0 0,0 m 16.3946,-20.26435 c -1.02195,0.99692 -2.28471,1.46768 -3.71227,1.48538 -1.42755,0.0177 -2.75447,-0.55763 -3.80081,-1.52892 -1.04635,-0.97128 -1.63084,-2.35936 -1.64854,-3.78692 -0.0177,-1.42755 0.62193,-2.87918 1.64388,-3.87609 1.02195,-0.99691 2.56234,-1.67251 3.98727,-1.58416 1.42493,0.0884 2.75639,0.73915 3.70149,1.8092 0.9451,1.07005 1.42641,2.47172 1.33806,3.89664 -0.0884,1.42493 -0.48713,2.58796 -1.50908,3.58487 0,0 0,0 0,0 m 20.79125,-15.72389 c -1.23402,0.71794 -2.57107,0.87455 -3.95981,0.54349 -1.38875,-0.33107 -2.53102,-1.20485 -3.30846,-2.40227 -0.77744,-1.19742 -1.01061,-2.69355 -0.67954,-4.0823 0.33106,-1.38875 1.29986,-2.64672 2.53387,-3.36466 1.23402,-0.71793 2.80896,-0.93372 4.17987,-0.53517 1.37091,0.39854 2.5588,1.34541 3.21562,2.61302 0.65681,1.2676 0.84924,2.68779 0.4507,4.0587 -0.39854,1.3709 -1.19824,2.45126 -2.43225,3.16919 0,0 0,0 0,0 m 23.97757,-10.25892 c -1.37091,0.39854 -2.70581,0.22951 -3.97342,-0.42731 -1.2676,-0.65681 -2.16439,-1.77863 -2.62935,-3.12846 -0.46496,-1.34983 -0.33044,-2.85997 0.32638,-4.12757 0.65682,-1.26761 1.90008,-2.25615 3.27099,-2.6547 1.3709,-0.39854 2.95078,-0.2294 4.1848,0.48853 1.23402,0.71793 2.1575,1.92177 2.48857,3.31052 0.33106,1.38875 0.17527,2.8153 -0.54267,4.04932 -0.71793,1.23402 -1.75439,2.09113 -3.1253,2.48967 0,0 0,0 0,0 m 25.7322,-4.1805 c -1.42668,0.0531 -2.67824,-0.42918 -3.7483,-1.37428 -1.07005,-0.9451 -1.66638,-2.24566 -1.7899,-3.66797 -0.12352,-1.42231 0.37366,-2.86011 1.31876,-3.93017 0.9451,-1.07005 2.3925,-1.73309 3.81918,-1.78617 1.42668,-0.0531 2.91923,0.4887 3.94118,1.48561 1.02195,0.99692 1.62462,2.38169 1.60691,3.80925 -0.0177,1.42755 -0.51559,2.78095 -1.5125,3.8029 -0.99691,1.02195 -2.20865,1.60775 -3.63533,1.66083 0,0 0,0 0,0 m 25.97623,2.13526 c -1.39644,-0.29697 -2.35944,-1.05604 -3.19467,-2.2139 -0.83522,-1.15785 -1.17628,-2.60007 -0.94815,-4.00939 0.22814,-1.40932 1.00678,-2.67029 2.16463,-3.50552 1.15785,-0.83522 2.8212,-1.09871 4.21763,-0.80174 1.39644,0.29697 2.71235,1.17735 3.46024,2.39344 0.7479,1.21609 0.99636,2.69783 0.63143,4.07807 -0.36493,1.38024 -1.18067,2.57926 -2.39677,3.32715 -1.21609,0.74789 -2.5379,1.02885 -3.93434,0.73189 0,0 0,0 0,0 m 24.71217,8.3346 c -1.28325,-0.62569 -2.03778,-1.59097 -2.568,-2.91652 -0.53022,-1.32555 -0.51216,-2.80745 0.0502,-4.11968 0.56238,-1.31223 1.62301,-2.34731 2.94856,-2.87753 1.32556,-0.53023 3.00432,-0.38898 4.28757,0.23672 1.28325,0.62569 2.34807,1.79583 2.77997,3.1566 0.43189,1.36077 0.31591,2.85677 -0.37165,4.10796 -0.68757,1.2512 -1.76993,2.21939 -3.1307,2.65128 -1.36077,0.43189 -2.71272,0.38686 -3.99598,-0.23883 0,0 0,0 0,0 m 21.97314,14.03711 c -1.09307,-0.91838 -1.59407,-2.02945 -1.78749,-3.44395 -0.19343,-1.4145 0.18297,-2.84791 1.0464,-3.98489 0.86343,-1.13697 2.14316,-1.88438 3.55766,-2.07781 1.4145,-0.19343 3.0159,0.34544 4.10897,1.26382 1.09307,0.91839 1.84632,2.30895 1.93467,3.73388 0.0884,1.42492 -0.38343,2.84369 -1.35471,3.89004 -0.97128,1.04634 -2.25991,1.72744 -3.68484,1.8158 -1.42492,0.0883 -2.7276,-0.27851 -3.82066,-1.19689 0,0 0,0 0,0 m 17.94156,18.90435 c -0.83522,-1.15785 -1.06674,-2.34495 -0.90819,-3.76378 0.15855,-1.41883 0.87423,-2.71657 1.98961,-3.60773 1.11538,-0.89115 2.53908,-1.30273 3.95791,-1.14418 1.41884,0.15855 2.85684,1.0594 3.69206,2.21725 0.83522,1.15786 1.23375,2.68382 0.9711,4.08712 -0.26265,1.40329 -1.07201,2.64477 -2.25001,3.45133 -1.178,0.80656 -2.62816,1.11212 -4.03146,0.84947 -1.40329,-0.26266 -2.58579,-0.93163 -3.42102,-2.08948 0,0 0,0 0,0 m 12.92134,22.82225 c -0.56239,-1.31223 -0.52894,-2.67042 -0.0312,-4.00851 0.49775,-1.33808 1.50666,-2.42364 2.80479,-3.01785 1.29813,-0.59421 2.77914,-0.6484 4.11723,-0.15066 1.33808,0.49775 2.44234,1.62385 3.00472,2.93609 0.56238,1.31223 0.59609,3.00605 0.002,4.30418 -0.59421,1.29813 -1.67976,2.30704 -3.01785,2.80479 -1.33808,0.49775 -2.81909,0.44355 -4.11722,-0.15066 -1.29813,-0.59421 -2.19998,-1.40515 -2.76236,-2.71738 0,0 0,0 0,0 m 6.9872,25.12585 c -0.22814,-1.40932 0.13034,-2.7177 0.9369,-3.8957 0.80656,-1.17801 2.05717,-1.93654 3.45361,-2.23351 1.39644,-0.29697 2.85118,0.0264 4.02918,0.83297 1.17801,0.80655 1.97986,2.16656 2.208,3.57588 0.22813,1.40932 -0.14235,3.06186 -1.0335,4.17723 -0.89116,1.11538 -2.1889,1.83107 -3.60773,1.98962 -1.41883,0.15854 -2.84254,-0.25303 -3.95791,-1.14418 -1.11538,-0.89116 -1.80042,-1.89299 -2.02855,-3.30231 0,0 0,0 0,0"
       style="fill:#cccccc;stroke:url(#radialGradient8823);stroke-width:2.0999999;stroke-miterlimit:4;stroke-dasharray:none;filter:url(#filter8456)"
       inkscape:connector-curvature="0"
       transform="matrix(2.7294298,2.6357794,-2.6357794,2.7294298,1407.7627,-2402.4353)" />
    <path
       style="opacity:1;fill:url(#linearGradient8739);fill-opacity:1;stroke-width:2.0999999;stroke-miterlimit:4;stroke-dasharray:none"
       d="m 1057.1615,-573.03915 a 36.032314,36.032314 0 0 0 -44.2795,-1.53899 l 53.4924,44.88555 a 36.032314,36.032314 0 0 0 -9.2129,-43.34656 z m -53.4791,8.21146 a 36.032314,36.032314 0 0 0 7.1565,46.99326 36.032314,36.032314 0 0 0 47.5266,-1.10893 l -54.6831,-45.88433 z"
       id="path8540"
       inkscape:connector-curvature="0" />
    <path
       style="opacity:1;fill:url(#linearGradient8739-0);fill-opacity:1;stroke-width:2.0999999;stroke-miterlimit:4;stroke-dasharray:none"
       d="m 1062.0333,547.25488 a 36.032314,36.032314 0 0 0 -40.1579,-18.71792 l 31.702,62.21853 a 36.032314,36.032314 0 0 0 8.4559,-43.50061 z m -52.436,-13.33716 a 36.032314,36.032314 0 0 0 -11.77417,46.05384 36.032314,36.032314 0 0 0 44.18167,17.54924 l -32.4075,-63.60308 z"
       id="path8540-7"
       inkscape:connector-curvature="0" />
    <path
       style="opacity:1;fill:url(#linearGradient8739-03);fill-opacity:1;stroke-width:2.0999999;stroke-miterlimit:4;stroke-dasharray:none"
       d="M 472.75369,-32.99485 A 36.032314,36.032314 0 0 0 442.54241,-0.58649804 L 511.51218,-11.510227 A 36.032314,36.032314 0 0 0 472.75369,-32.99485 Z M 443.86572,12.753349 A 36.032314,36.032314 0 0 0 484.0271,38.182573 36.032314,36.032314 0 0 0 514.37026,1.586516 l -70.50454,11.166833 z"
       id="path8540-4"
       inkscape:connector-curvature="0" />
    <path
       style="opacity:1;fill:url(#linearGradient8739-03-8);fill-opacity:1;stroke-width:2.0999999;stroke-miterlimit:4;stroke-dasharray:none"
       d="m 1581.8775,-28.290911 a 36.032314,36.032314 0 0 0 -15.871,41.365866 l 59.8553,-35.96483 a 36.032314,36.032314 0 0 0 -43.9843,-5.401036 z m -9.6471,53.238627 a 36.032314,36.032314 0 0 0 46.7631,8.532855 36.032314,36.032314 0 0 0 14.4244,-45.297981 l -61.1875,36.765126 z"
       id="path8540-4-2"
       inkscape:connector-curvature="0" />
    <circle
       style="opacity:1;fill:#b3b3b3;fill-opacity:1;stroke-width:2.0999999;stroke-miterlimit:4;stroke-dasharray:none;filter:url(#filter9357)"
       id="path9331"
       cx="372.04724"
       cy="526.18109"
       r="38.92857"
       transform="matrix(4.9547067,0,0,4.9547067,-807.04261,-2592.6995)" />
    <path
       style="opacity:1;fill:url(#linearGradient8739-7);fill-opacity:1;stroke-width:2.0999999;stroke-miterlimit:4;stroke-dasharray:none"
       d="m 1054.8782,-313.11984 a 46.842008,46.842008 0 0 0 -54.1209,19.70853 l 86.3353,28.05206 a 46.842008,46.842008 0 0 0 -32.2144,-47.76059 z m -60.46114,35.94126 a 46.842008,46.842008 0 0 0 31.51124,53.15763 46.842008,46.842008 0 0 0 56.7452,-24.48143 l -88.25644,-28.6762 z"
       id="path8540-9"
       inkscape:connector-curvature="0" />
    <path
       style="opacity:1;fill:url(#linearGradient8739-7-6);fill-opacity:1;stroke-width:2.0999999;stroke-miterlimit:4;stroke-dasharray:none"
       d="m 820.71901,240.27431 a 46.842008,46.842008 0 0 0 46.60314,33.84747 l -25.02179,-87.26169 a 46.842008,46.842008 0 0 0 -21.58135,53.41422 z m 63.60613,30.02655 a 46.842008,46.842008 0 0 0 26.44877,-55.84942 46.842008,46.842008 0 0 0 -52.02754,-33.35411 l 25.57877,89.20353 z"
       id="path8540-9-7"
       inkscape:connector-curvature="0" />
    <path
       style="opacity:1;fill:url(#linearGradient8739-7-9);fill-opacity:1;stroke-width:2.0999999;stroke-miterlimit:4;stroke-dasharray:none"
       d="m 1216.3863,270.94706 a 46.842008,46.842008 0 0 0 28.7908,-49.88598 l -84.1683,34.00606 a 46.842008,46.842008 0 0 0 55.3775,15.87992 z m 23.2133,-66.39642 a 46.842008,46.842008 0 0 0 -58.3082,-20.46593 46.842008,46.842008 0 0 0 -27.7329,55.22892 l 86.0411,-34.76299 z"
       id="path8540-9-3"
       inkscape:connector-curvature="0" />
  </g>
  <g
     inkscape:groupmode="layer"
     id="layer2"
     inkscape:label="Schrift"
     style="display:inline"
     transform="translate(0,995.63784)">
    <path
       style="fill:url(#linearGradient9458);fill-opacity:1;stroke-width:2.0999999;stroke-miterlimit:4;stroke-dasharray:none;filter:url(#filter8945)"
       d="m 562.02344,426.16016 c -1.18701,-0.12685 -2.77531,0.84701 -5.47656,3.21875 -6.63514,5.82574 -9.87125,6.32055 -28.48047,4.3457 -31.52675,-3.34565 -42.54367,-3.41798 -51.25977,-0.33594 -10.58073,3.74138 -22.48373,12.49865 -35.66992,26.24414 -18.02142,18.7858 -22.92926,32.76593 -19.13672,54.50391 1.15171,6.60132 2.41335,12.32159 2.80469,12.71289 0.51628,0.51627 17.94977,-8.76781 23.61133,-12.57422 0.21558,-0.14494 -0.84896,-4.73929 -2.36524,-10.21094 -3.82263,-13.79439 -4.84666,-25.49947 -2.7793,-31.76367 3.47572,-10.53158 14.98565,-19.17598 29.00586,-21.78516 6.01364,-1.11914 58.07708,3.41045 57.51368,5.00391 -0.49319,1.39488 -59.96642,78.61277 -83.40625,108.29102 -26.91528,34.0787 -34.20471,38.80372 -59.56446,38.61328 l -13.7207,-0.10352 -5.52734,11.14258 -5.52539,11.14453 4.15429,0.83008 c 2.28472,0.45693 8.3278,0.83008 13.42969,0.83008 21.3052,0 37.25004,-11.32694 70.11914,-49.81446 l 11.83984,-13.86328 16.95899,-0.0351 c 9.32701,-0.0191 22.97908,0.36432 30.33789,0.85156 l 13.3789,0.88477 -0.68945,5.55078 c -0.37889,3.05316 -2.09787,16.76888 -3.82226,30.47851 l -3.13672,24.92578 3.13281,2.53711 c 1.78927,1.44886 4.38284,2.26017 6.04688,1.89063 8.97593,-1.99336 53.11745,-10.18945 54.8789,-10.18945 2.22719,0 7.04883,-3.79163 7.04883,-5.54297 0,-0.57865 -6.56276,-0.70967 -14.58399,-0.29297 -26.80773,1.39272 -29.00738,-1.59697 -25.45312,-34.57617 2.73987,-25.42283 12.08721,-100.27595 16.10352,-128.95704 2.51841,-17.98447 2.75792,-22.27305 1.3125,-23.47265 -0.33258,-0.27602 -0.68441,-0.44014 -1.08008,-0.48242 z m -270.76367,0.87695 c -1.4423,-0.0279 -4.37491,0.98725 -9.79493,3.02734 -5.3809,2.02536 -13.34267,3.59553 -21.39843,4.22071 -44.98733,3.49123 -79.00724,25.8745 -85.52539,56.26757 -1.53254,7.14599 -0.28525,19.41784 3.14257,30.9336 l 1.72266,5.78711 11.53125,-7.67578 c 6.34237,-4.22137 11.72064,-7.82698 11.95117,-8.01368 0.23055,-0.1866 -0.53402,-5.35618 -1.69726,-11.48828 -2.65136,-13.97647 -2.66421,-20.7162 -0.0586,-29.49023 2.87676,-9.68705 12.57107,-18.30677 24.86914,-22.11133 8.21878,-2.5426 37.59972,-6.42176 38.88672,-5.13476 0.45699,0.45699 -15.55757,69.00374 -17.78125,76.10937 -0.4149,1.32586 -3.25492,5.29416 -6.3125,8.81836 l -5.55859,6.40625 4.36719,0.42969 c 3.3576,0.33036 4.21256,0.95964 3.69531,2.71484 -0.37011,1.25593 -2.47989,10.2198 -4.6875,19.91992 -2.20763,9.7001 -5.33064,21.13873 -6.94141,25.41992 -6.18087,16.42793 -16.88201,27.5871 -30.30859,31.60547 -3.86779,1.15754 -9.42328,4.21524 -12.34571,6.79492 l -5.31445,4.68946 22.95117,0.1914 c 12.62252,0.10496 40.95893,0.63366 62.97071,1.17383 44.90152,1.10185 53.70445,0.81894 63.30859,-2.0332 18.01571,-5.35008 40.77687,-31.00507 39.54492,-44.57227 l -0.42578,-4.68359 -11.52344,4.30859 -11.52343,4.3086 0.4375,9.46289 c 0.39088,8.46106 0.10116,9.77931 -2.72266,12.43164 -5.48676,5.15353 -12.93472,5.7779 -69.36133,5.8125 l -53.99609,0.0332 15.03711,-16.61914 c 8.27032,-9.14049 16.52286,-19.59748 18.33789,-23.23828 1.81502,-3.64079 4.94377,-13.79692 6.95312,-22.56836 l 3.65235,-15.94727 10.29882,-0.80664 c 5.66373,-0.44375 17.38119,-1.20249 26.03907,-1.68554 15.33763,-0.85574 15.8764,-0.99522 21.02734,-5.4043 l 5.28711,-4.52344 -29.56836,-0.0508 -29.56836,-0.0527 0.8457,-4.40821 c 0.46549,-2.42504 4.62149,-20.28144 9.23633,-39.68164 l 8.39063,-35.27343 21.41406,-0.375 c 26.74046,-0.46695 31.03327,0.92303 37.45703,12.12695 2.28332,3.98242 4.35869,7.84251 4.61133,8.57812 0.25261,0.7356 5.40756,-3.13138 11.45703,-8.59375 11.20535,-10.11786 11.41872,-10.57028 8.1875,-17.35351 -2.99722,-6.29193 -5.43832,-6.43465 -65.22265,-3.82031 l -15.97657,0.69921 0.86133,-3.43164 c 0.53578,-2.1347 0.58292,-3.20643 -0.85937,-3.23437 z m 245.13476,37.19727 c 0.039,-0.0164 0.0638,-0.0116 0.0723,0.0137 0.59729,1.79183 -11.37937,84.28052 -12.5,86.09375 -1.18062,1.9104 -52.20118,1.74236 -52.20118,-0.17188 1e-5,-2.29953 62.1712,-84.89944 64.62891,-85.93554 z"
       id="path8536"
       inkscape:connector-curvature="0"
       transform="matrix(4.5897071,0,0,4.5897071,-714.15328,-2344.1726)" />
  </g>
</svg>
